<?xml version="1.0" standalone="no"?><!DOCTYPE svg PUBLIC "-//W3C//DTD SVG 1.1//EN" "http://www.w3.org/Graphics/SVG/1.1/DTD/svg11.dtd"><svg t="1750337743822" class="icon" viewBox="0 0 1024 1024" version="1.1" xmlns="http://www.w3.org/2000/svg" p-id="8085" xmlns:xlink="http://www.w3.org/1999/xlink" width="48" height="48"><path d="M949 191l-120 818h60c66.274 0 120-53.726 120-120l-60-698z" fill="#FFEBBE" p-id="8086"></path><path d="M949 889v-698h-874l-60 698c0 66.274 53.726 120 120 120h694c66.274 0 120-53.726 120-120z" fill="#FFFFFF" p-id="8087"></path><path d="M846.578 195l-197.99 60v-60h-84.852l-197.99 60v-60h-84.852L75 255v205.274l27.29 479.016a59.698 59.698 0 0 0 32.71 9.712h42.43l193.148-60 193.148 60h84.854v-60l197.99 60H889c12.072 0 23.3-3.578 32.712-9.712v-170.7H949V195h-102.422z" fill="#FFD87C" p-id="8088"></path><path d="M931.43 195L695.848 434.748 949 683.734V195z" fill="#5DC75D" p-id="8089"></path><path d="M554.426 487.152L846.578 195h-197.99l-193.156 193.156z" fill="#FF673B" p-id="8090"></path><path d="M702.918 522.506l-98.994 98.996 317.788 317.786c16.422-10.706 27.288-29.222 27.288-50.288v-120.412L702.918 522.506z" fill="#FF8C51" p-id="8091"></path><path d="M75 195v205.892L280.892 195z" fill="#5DC75D" p-id="8092"></path><path d="M177.43 949h386.296l-193.148-193.148z" fill="#FF673B" p-id="8093"></path><path d="M365.746 195l-51.736 51.736 98.996 98.994L563.736 195z" fill="#5DC75D" p-id="8094"></path><path d="M75 460.274V889c0 21.066 10.866 39.584 27.29 50.288l225.864-225.862L75 460.274zM554.426 854.846L648.58 949h197.99l-193.148-193.148zM512 812.428l-98.996-98.994L512 614.44l98.994 98.994z" fill="#FF8C51" p-id="8095"></path><path d="M207.94 508.364l141.42-141.42 162.634 162.634-141.42 141.42z" fill="#FF673B" p-id="8096"></path><path d="M15 135v754c0-66.274 53.726-120 120-120V15c-66.274 0-120 53.726-120 120z" fill="#FFEBBE" p-id="8097"></path><path d="M949 31.094l-30 30v664l30 60c35.858 20.752 60 59.498 60 103.906v-754c0-44.41-24.142-83.154-60-103.906z" fill="#FFD87C" p-id="8098"></path><path d="M889 15v754a119.384 119.384 0 0 1 60 16.094v-754a119.384 119.384 0 0 0-60-16.094z" fill="#FFEBBE" p-id="8099"></path><path d="M501.394 603.824l-98.996 98.994a15 15 0 0 0 0 21.216l98.996 98.994c2.928 2.928 6.768 4.392 10.606 4.392s7.678-1.464 10.606-4.392l98.996-98.994a15 15 0 0 0 0-21.216l-98.996-98.994a15.002 15.002 0 0 0-21.212 0zM512 791.208l-77.782-77.782L512 635.644l77.782 77.782L512 791.208zM522.606 518.97l-162.634-162.634a15 15 0 0 0-21.212 0l-141.42 141.422a15 15 0 0 0 0 21.214l162.634 162.634a15 15 0 0 0 21.212 0l141.42-141.422a15 15 0 0 0 0-21.214z m-152.026 130.818l-141.422-141.422 120.208-120.208 141.422 141.422-120.208 120.208z" p-id="8100"></path><path d="M889 0a15 15 0 0 0-15 15V120H150V15A15 15 0 0 0 135 0C60.56 0 0 60.56 0 135v754C0 963.44 60.56 1024 135 1024h754c74.44 0 135-60.56 135-135v-754C1024 60.56 963.44 0 889 0zM934 889c0 11.482-4.33 21.97-11.434 29.93L625.136 621.502l77.782-77.784 115.474 115.476a15.002 15.002 0 0 0 21.212-21.214l-126.082-126.082a15 15 0 0 0-21.212 0l-98.996 98.996a15 15 0 0 0 0 21.214L894.82 933.612c-1.906 0.248-3.846 0.388-5.82 0.388h-36.216l-188.756-188.756a15 15 0 0 0-21.212 0L543.82 844.24a15 15 0 0 0 0 21.214L612.366 934H569.94l-188.756-188.756a15 15 0 0 0-21.212 0L171.216 934H135c-1.974 0-3.912-0.142-5.82-0.388l209.578-209.578a15 15 0 0 0 0-21.214L150 514.06v-166.954L287.106 210h42.424l-26.128 26.126a15 15 0 0 0 0 21.216l98.996 98.996a15 15 0 0 0 21.212 0L569.95 210h42.424l-167.548 167.548a15 15 0 0 0 0 21.214l98.996 98.996a15 15 0 0 0 21.212 0L852.792 210H874v21.312l-188.872 192.94a14.99 14.99 0 0 0 0.228 21.212L874 630.042V769a15 15 0 0 0 15 15 104.35 104.35 0 0 1 45 10.152V889zM654.792 934l-79.154-79.152 77.782-77.784L810.356 934h-155.564z m-127.28 0H213.644l156.934-156.936L527.512 934zM90 889v-94.848A104.35 104.35 0 0 1 135 784a15 15 0 0 0 15-15V556.488l156.94 156.938L101.434 918.93C94.33 910.97 90 900.484 90 889zM150 210h94.678L150 304.678V210z m221.958 0h155.562l-114.516 114.518-77.782-77.784L371.958 210z m438.406 0L554.426 465.94l-77.782-77.784L654.802 210h155.562zM874 588.072l-156.938-153.556L874 274.198v313.874zM874 150v30H150V150h724zM30 135c0-52.804 39.182-96.63 90-103.932v723.76a133.968 133.968 0 0 0-51.674 16.846 15.11 15.11 0 0 0-1.882 1.106A135.992 135.992 0 0 0 30 804.234V135zM889 994h-754C77.102 994 30 946.896 30 889c0-28.538 11.46-54.44 30-73.384V889c0 26.06 13.366 49.048 33.596 62.496 0.406 0.29 0.82 0.556 1.246 0.798A74.538 74.538 0 0 0 135 964h754c14.788 0 28.578-4.32 40.208-11.738 0.398-0.23 0.788-0.48 1.168-0.75C950.622 938.068 964 915.072 964 889v-73.384c18.54 18.944 30 44.846 30 73.384 0 57.896-47.102 105-105 105z m102.212-193.048c-22.096-25.618-53.548-42.382-87.212-46.124V31.068c50.818 7.3 90 51.126 90 103.932v669.236l-2.788-3.284z" p-id="8101"></path></svg>